<svg preserveAspectRatio="none" width="100%" height="100%" overflow="visible" style="display: block;" viewBox="0 0 15 16" fill="none" xmlns="http://www.w3.org/2000/svg">
<g id="SVG">
<path id="Vector" d="M5.80663 3.28043C5.83971 2.9324 6.00136 2.60919 6.26001 2.37397C6.51865 2.13875 6.85569 2.00841 7.2053 2.00841C7.55491 2.00841 7.89195 2.13875 8.1506 2.37397C8.40924 2.60919 8.57089 2.9324 8.60397 3.28043C8.62385 3.50526 8.69761 3.72199 8.819 3.91228C8.94039 4.10256 9.10583 4.2608 9.30133 4.3736C9.49683 4.4864 9.71663 4.55044 9.94212 4.56029C10.1676 4.57015 10.3922 4.52554 10.5968 4.43023C10.9144 4.286 11.2744 4.26513 11.6067 4.37168C11.9389 4.47824 12.2196 4.70459 12.3941 5.00669C12.5686 5.3088 12.6245 5.66503 12.5509 6.00607C12.4773 6.3471 12.2794 6.64854 11.9957 6.85171C11.811 6.98131 11.6603 7.15349 11.5562 7.35368C11.4521 7.55386 11.3977 7.77618 11.3977 8.00181C11.3977 8.22744 11.4521 8.44976 11.5562 8.64994C11.6603 8.85013 11.811 9.02231 11.9957 9.15191C12.2794 9.35508 12.4773 9.65652 12.5509 9.99755C12.6245 10.3386 12.5686 10.6948 12.3941 10.9969C12.2196 11.299 11.9389 11.5254 11.6067 11.6319C11.2744 11.7385 10.9144 11.7176 10.5968 11.5734C10.3922 11.4781 10.1676 11.4335 9.94212 11.4433C9.71663 11.4532 9.49683 11.5172 9.30133 11.63C9.10583 11.7428 8.94039 11.9011 8.819 12.0913C8.69761 12.2816 8.62385 12.4984 8.60397 12.7232C8.57089 13.0712 8.40924 13.3944 8.1506 13.6296C7.89195 13.8649 7.55491 13.9952 7.2053 13.9952C6.85569 13.9952 6.51865 13.8649 6.26001 13.6296C6.00136 13.3944 5.83971 13.0712 5.80663 12.7232C5.78678 12.4983 5.71302 12.2815 5.5916 12.0911C5.47018 11.9008 5.30467 11.7425 5.10909 11.6297C4.91351 11.5168 4.69362 11.4528 4.46805 11.443C4.24248 11.4332 4.01787 11.478 3.81325 11.5734C3.49556 11.7176 3.13557 11.7385 2.80335 11.6319C2.47112 11.5254 2.19042 11.299 2.01589 10.9969C1.84135 10.6948 1.78547 10.3386 1.85911 9.99755C1.93274 9.65652 2.13064 9.35508 2.41428 9.15191C2.59898 9.02231 2.74975 8.85013 2.85383 8.64994C2.95792 8.44976 3.01226 8.22744 3.01226 8.00181C3.01226 7.77618 2.95792 7.55386 2.85383 7.35368C2.74975 7.15349 2.59898 6.98131 2.41428 6.85171C2.13104 6.64844 1.93349 6.34712 1.86003 6.00631C1.78657 5.66551 1.84244 5.30957 2.01679 5.00766C2.19114 4.70575 2.4715 4.47945 2.8034 4.37274C3.1353 4.26602 3.49502 4.28651 3.81265 4.43023C4.01724 4.52554 4.24179 4.57015 4.46728 4.56029C4.69277 4.55044 4.91257 4.4864 5.10807 4.3736C5.30357 4.2608 5.46901 4.10256 5.5904 3.91228C5.71179 3.72199 5.78554 3.50526 5.80543 3.28043" stroke="black" stroke-width="1.20083" stroke-linecap="round" stroke-linejoin="round"/>
<path id="Vector_2" d="M7.20452 9.80241C8.19907 9.80241 9.0053 8.99618 9.0053 8.00163C9.0053 7.00709 8.19907 6.20086 7.20452 6.20086C6.20998 6.20086 5.40375 7.00709 5.40375 8.00163C5.40375 8.99618 6.20998 9.80241 7.20452 9.80241Z" stroke="black" stroke-width="1.20083" stroke-linecap="round" stroke-linejoin="round"/>
</g>
</svg>
